<svg viewBox="0 0 872 260" fill="none" xmlns="http://www.w3.org/2000/svg">
<path d="M797.431 256.565C792.704 239.685 787.64 222.804 782.914 205.586L746.789 205.924C742.401 222.467 736.999 239.685 730.922 257.578L656.647 256.228L726.87 3.01999H801.82L871.03 256.228L797.431 256.565ZM762.657 101.265C762.657 125.235 759.956 147.18 755.905 168.449H773.798C769.072 146.167 765.696 123.885 766.033 101.265H762.657Z" fill="#FF7052"/>
<path d="M462.645 256.228V3.01999H571.355C638.202 4.37043 647.993 69.1916 647.993 114.094C647.993 174.526 630.099 256.228 548.398 256.228H462.645ZM534.893 61.4266V195.12C571.693 195.796 573.043 162.034 573.043 107.342C573.043 79.9952 572.705 61.4266 534.893 61.4266Z" fill="#FF7052"/>
<path d="M324.861 233.946V256.228H252.95V3.01999H326.549L338.028 27.6656C355.246 65.8155 372.802 118.483 381.917 159.334L385.293 158.658C376.178 117.808 370.439 62.777 370.439 20.5757V3.01999H442.35V256.228H370.439V252.514L358.285 226.518C340.391 188.706 322.16 136.376 313.045 95.5253L309.669 96.2005C319.122 137.051 324.861 192.082 324.861 233.946Z" fill="#FF7052"/>
<path d="M0 129.662C0 51.6744 47.2654 0.019989 118.501 0.019989C189.399 0.019989 236.327 51.6744 236.327 129.662C236.327 208.326 189.399 259.98 118.501 259.98C47.2654 259.98 0 208.326 0 129.662ZM75.2871 129.662C75.2871 158.359 92.5052 177.265 118.501 177.265C143.822 177.265 161.378 158.359 161.378 129.662C161.378 101.641 143.822 82.7346 118.501 82.7346C92.5052 82.7346 75.2871 101.641 75.2871 129.662Z" fill="#FF7052"/>
<path d="M117.751 111L123.545 123.397L136.502 125.398L127.127 135.042L129.339 148.667L117.751 142.231L106.163 148.667L108.376 135.042L99 125.398L111.957 123.397L117.751 111Z" fill="#FF7052" stroke="#FF7052" stroke-width="2" stroke-linecap="round" stroke-linejoin="round"/>
</svg>
