<svg width="125" height="37" viewBox="0 0 125 37" fill="none" xmlns="http://www.w3.org/2000/svg">
<path d="M113.781 36.048C113.109 33.648 112.389 31.248 111.717 28.8L106.581 28.848C105.957 31.2 105.189 33.648 104.325 36.192L93.7646 36L103.749 0H114.405L124.245 36L113.781 36.048ZM108.837 13.968C108.837 17.376 108.453 20.496 107.877 23.52H110.421C109.749 20.352 109.269 17.184 109.317 13.968H108.837Z" fill="white"/>
<path d="M66.1822 36V0H81.6382C91.1422 0.192 92.5342 9.408 92.5342 15.792C92.5342 24.384 89.9902 36 78.3742 36H66.1822ZM76.4542 8.304V27.312C81.6862 27.408 81.8782 22.608 81.8782 14.832C81.8782 10.944 81.8302 8.304 76.4542 8.304Z" fill="white"/>
<path d="M46.5926 32.832V36H36.3686V0H46.8326L48.4646 3.504C50.9126 8.928 53.4086 16.416 54.7046 22.224L55.1846 22.128C53.8886 16.32 53.0726 8.496 53.0726 2.496V0H63.2966V36H53.0726V35.472L51.3446 31.776C48.8006 26.4 46.2086 18.96 44.9126 13.152L44.4326 13.248C45.7766 19.056 46.5926 26.88 46.5926 32.832Z" fill="white"/>
<path d="M0.405334 18.432C0.405334 7.344 7.12533 0 17.2533 0C27.3333 0 34.0053 7.344 34.0053 18.432C34.0053 29.616 27.3333 36.96 17.2533 36.96C7.12533 36.96 0.405334 29.616 0.405334 18.432ZM11.1093 18.432C11.1093 22.512 13.5573 25.2 17.2533 25.2C20.8533 25.2 23.3493 22.512 23.3493 18.432C23.3493 14.448 20.8533 11.76 17.2533 11.76C13.5573 11.76 11.1093 14.448 11.1093 18.432Z" fill="white"/>
<path d="M17.5 16L18.2725 17.6456L20 17.9111L18.75 19.1914L19.045 21L17.5 20.1456L15.955 21L16.25 19.1914L15 17.9111L16.7275 17.6456L17.5 16Z" fill="white" stroke="white" stroke-width="2" stroke-linecap="round" stroke-linejoin="round"/>
</svg>
