<svg width="60" height="60" viewBox="0 0 60 60" fill="none" xmlns="http://www.w3.org/2000/svg">
<rect x="0.5" y="0.5" width="59" height="59" rx="11.5" stroke="#CDCED6"/>
<path d="M30 24C31.6569 24 33 22.6569 33 21C33 19.3431 31.6569 18 30 18C28.3431 18 27 19.3431 27 21C27 22.6569 28.3431 24 30 24Z" fill="#111111"/>
<path d="M27.3 12L25.653 13.7778H22.8C21.81 13.7778 21 14.5778 21 15.5556V26.2222C21 27.2 21.81 28 22.8 28H37.2C38.19 28 39 27.2 39 26.2222V15.5556C39 14.5778 38.19 13.7778 37.2 13.7778H34.347L32.7 12H27.3ZM30 25.3333C27.516 25.3333 25.5 23.3422 25.5 20.8889C25.5 18.4356 27.516 16.4444 30 16.4444C32.484 16.4444 34.5 18.4356 34.5 20.8889C34.5 23.3422 32.484 25.3333 30 25.3333Z" fill="#111111"/>
<path d="M13.6289 41.332C13.6289 43.1719 14.8477 45.0586 16.3242 45.7852L15.7617 46.5234C14.6133 45.9199 13.6523 44.6895 13.1953 43.2422C12.7266 44.7832 11.7422 46.0957 10.5703 46.7227L9.98438 45.9844C11.5078 45.2344 12.7148 43.2305 12.7266 41.332V39.4336H13.6289V41.332ZM18.1992 38.5312V42.7617H19.9453V43.5586H18.1992V48.9492H17.2852V38.5312H18.1992ZM23.9578 40.7695C23.9578 42.1758 25.0711 43.4414 26.6297 43.9336L26.1609 44.6719C24.948 44.2617 23.9812 43.4062 23.5125 42.3047C23.0555 43.4941 22.077 44.4316 20.8406 44.8828L20.3602 44.1445C21.9187 43.5938 23.032 42.2461 23.032 40.7695V40.1602H20.5945V39.4102H26.3602V40.1602H23.9578V40.7695ZM28.8094 38.543V46.1836H27.8953V38.543H28.8094ZM29.1375 47.9531V48.7266H22.0828V45.457H22.9969V47.9531H29.1375ZM36.143 48.1172C34.2563 48.1172 33.1781 46.5352 33.1781 43.7578C33.1781 41.0039 34.2797 39.3984 36.143 39.3984C38.0063 39.3984 39.1078 41.0039 39.1078 43.7578C39.1078 46.5352 38.018 48.1172 36.143 48.1172ZM36.143 47.1797C37.3617 47.1797 38.0766 45.9492 38.0766 43.7578C38.0766 41.5664 37.3617 40.3125 36.143 40.3125C34.9242 40.3125 34.1977 41.5664 34.1977 43.7578C34.1977 45.9492 34.9125 47.1797 36.143 47.1797ZM43.2492 39.1172L40.507 49.2773H39.593L42.3234 39.1172H43.2492ZM46.6875 48.1172C45.1523 48.1172 43.9922 47.168 43.9336 45.8672H44.9531C45.0352 46.6289 45.7734 47.1914 46.6875 47.1914C47.7891 47.1914 48.5859 46.3828 48.5859 45.3164C48.5859 44.2148 47.7539 43.4062 46.6172 43.3945C45.9023 43.3828 45.3516 43.6055 45.0352 44.1562H44.0156L44.6133 39.5156H49.207V40.4531H45.4922L45.1758 42.9375H45.2578C45.6328 42.6445 46.207 42.4453 46.8047 42.4453C48.4219 42.4453 49.6172 43.6406 49.6172 45.293C49.6172 46.9336 48.375 48.1172 46.6875 48.1172Z" fill="#111111"/>
</svg>
