<svg width="24" height="24" viewBox="0 0 24 24" fill="none" xmlns="http://www.w3.org/2000/svg">
<g clip-path="url(#clip0_351_1714)">
<path d="M12 2L15.09 8.26L22 9.27L17 14.14L18.18 21.02L12 17.77L5.82 21.02L7 14.14L2 9.27L8.91 8.26L12 2Z" fill="#FF7052" fill-opacity="0.3"/>
<path d="M12 1C12.3806 1 12.728 1.21631 12.8965 1.55762L15.7529 7.3457L22.1445 8.28027C22.5211 8.33531 22.8338 8.59991 22.9512 8.96191C23.0684 9.32384 22.9698 9.72087 22.6973 9.98633L18.0742 14.4883L19.166 20.8506C19.2304 21.2258 19.0756 21.6054 18.7676 21.8291C18.4597 22.0527 18.0517 22.0822 17.7148 21.9053L12 18.8994L6.28516 21.9053C5.94835 22.0822 5.54029 22.0527 5.23242 21.8291C4.92444 21.6054 4.76964 21.2258 4.83398 20.8506L5.9248 14.4883L1.30273 9.98633C1.03019 9.72087 0.931598 9.32384 1.04883 8.96191C1.16621 8.59991 1.47891 8.33531 1.85547 8.28027L8.24609 7.3457L11.1035 1.55762L11.1748 1.43555C11.3594 1.16556 11.667 1 12 1Z" stroke="#FF7052" stroke-opacity="0.3" stroke-width="2" stroke-linecap="round" stroke-linejoin="round"/>
</g>
<defs>
<clipPath id="clip0_351_1714">
<rect width="24" height="24" fill="white"/>
</clipPath>
</defs>
</svg>
