<svg width="40" height="40" viewBox="0 0 40 40" fill="none" xmlns="http://www.w3.org/2000/svg">
<rect width="40" height="40" rx="12" fill="#2F61D5"/>
<path d="M18 21C18.4295 21.5741 18.9774 22.0491 19.6066 22.3929C20.2357 22.7367 20.9315 22.9411 21.6467 22.9923C22.3618 23.0435 23.0796 22.9403 23.7513 22.6897C24.4231 22.4392 25.0331 22.047 25.54 21.54L28.54 18.54C29.4508 17.597 29.9548 16.3339 29.9434 15.023C29.932 13.712 29.4061 12.4579 28.4791 11.5309C27.5521 10.6038 26.298 10.078 24.987 10.0666C23.676 10.0552 22.413 10.5592 21.47 11.47L19.75 13.18" stroke="white" stroke-width="2" stroke-linecap="round" stroke-linejoin="round"/>
<path d="M22 19C21.5705 18.4259 21.0226 17.9508 20.3934 17.607C19.7643 17.2633 19.0685 17.0589 18.3533 17.0076C17.6382 16.9564 16.9204 17.0596 16.2487 17.3102C15.5769 17.5608 14.9669 17.9529 14.46 18.46L11.46 21.46C10.5492 22.403 10.0452 23.666 10.0566 24.977C10.068 26.288 10.5939 27.542 11.5209 28.4691C12.4479 29.3961 13.702 29.922 15.013 29.9334C16.324 29.9447 17.587 29.4408 18.53 28.53L20.24 26.82" stroke="white" stroke-width="2" stroke-linecap="round" stroke-linejoin="round"/>
</svg>
