<svg width="60" height="60" viewBox="0 0 60 60" fill="none" xmlns="http://www.w3.org/2000/svg">
<rect width="60" height="60" rx="12" fill="white"/>
<path d="M30.3333 13.4329C32.5437 13.4329 34.629 13.8137 36.5891 14.5735C38.5504 15.3337 40.2693 16.383 41.7463 17.7209C43.2229 19.0586 44.396 20.6447 45.2649 22.4807C46.1327 24.3144 46.5666 26.2927 46.5667 28.4163C46.5667 31.5892 45.6017 34.011 43.6838 35.6965C41.7591 37.3881 39.4216 38.2347 36.6663 38.2336H33.5833C33.317 38.2336 33.1039 38.3077 32.9807 38.4846C32.8728 38.6397 32.8179 38.8122 32.8167 38.9993V39.0002C32.8167 39.1861 32.8739 39.4039 32.9807 39.6497C33.088 39.8965 33.248 40.1778 33.4583 40.4934C33.8632 41.1014 34.0667 41.7971 34.0667 42.5833C34.0667 43.9545 33.6897 44.9497 32.9553 45.5911C32.2143 46.2382 31.2328 46.5666 30.0002 46.5667C27.7357 46.5667 25.5962 46.131 23.5813 45.261C21.5649 44.3903 19.805 43.2034 18.301 41.6995C16.7969 40.1953 15.6092 38.4348 14.7385 36.4182C13.8687 34.4035 13.4329 32.2646 13.4329 30.0002C13.4329 27.7082 13.8821 25.5548 14.7795 23.5403C15.6779 21.5238 16.8934 19.7703 18.425 18.2795C19.9569 16.7887 21.7448 15.6083 23.7893 14.7385C25.7042 13.924 27.7407 13.4907 29.8997 13.4387L30.3333 13.4329ZM30.3333 16.5667C26.53 16.5667 23.2826 17.8682 20.5969 20.47C17.9109 23.0722 16.5667 26.2511 16.5667 30.0002C16.5667 33.7209 17.8759 36.8925 20.4924 39.509C23.1091 42.1257 26.2805 43.434 30.0002 43.4329C30.2694 43.4328 30.4968 43.3582 30.6721 43.1995C30.8482 43.04 30.9341 42.8305 30.9329 42.5823C30.9325 42.1599 30.7075 41.6801 30.2864 41.1467C29.8896 40.6442 29.6829 39.8784 29.6829 38.8333C29.6829 37.6926 30.0756 36.7909 30.8567 36.1174C31.6423 35.4402 32.605 35.0999 33.7502 35.0999H36.6663C38.5205 35.0999 40.1137 34.5587 41.4387 33.4739C42.7744 32.3801 43.4329 30.6865 43.4329 28.4163C43.4328 25.0259 42.1354 22.1999 39.5452 19.9446C36.9574 17.6916 33.8852 16.5655 30.3333 16.5667ZM20.8333 26.7668C21.5313 26.7668 22.1021 26.9938 22.554 27.4456C23.0057 27.8973 23.2336 28.4683 23.2336 29.1663C23.2336 29.8643 23.0058 30.4361 22.554 30.8879C22.1022 31.3396 21.5312 31.5667 20.8333 31.5667C20.1353 31.5667 19.5643 31.3396 19.1125 30.8879C18.6607 30.4361 18.4329 29.8643 18.4329 29.1663C18.4329 28.4683 18.6608 27.8973 19.1125 27.4456C19.5644 26.9938 20.1353 26.7668 20.8333 26.7668ZM39.1663 26.7668C39.8643 26.7668 40.4361 26.9937 40.8879 27.4456C41.3396 27.8973 41.5666 28.4684 41.5667 29.1663C41.5667 29.8643 41.3398 30.4361 40.8879 30.8879C40.4361 31.3398 39.8643 31.5667 39.1663 31.5667C38.4684 31.5666 37.8973 31.3396 37.4456 30.8879C36.9937 30.4361 36.7668 29.8643 36.7668 29.1663C36.7669 28.4683 36.9938 27.8973 37.4456 27.4456C37.8973 26.9938 38.4683 26.7669 39.1663 26.7668ZM25.8333 20.0999C26.5312 20.0999 27.1022 20.3269 27.554 20.7786C28.0058 21.2304 28.2336 21.8022 28.2336 22.5002C28.2336 23.1982 28.0057 23.7692 27.554 24.2209C27.1021 24.6727 26.5313 24.8997 25.8333 24.8997C25.1353 24.8997 24.5644 24.6727 24.1125 24.2209C23.6608 23.7692 23.4329 23.1982 23.4329 22.5002C23.4329 21.8022 23.6607 21.2304 24.1125 20.7786C24.5643 20.3269 25.1353 20.0999 25.8333 20.0999ZM34.1663 20.0999C34.8643 20.0999 35.4361 20.3267 35.8879 20.7786C36.3398 21.2304 36.5667 21.8022 36.5667 22.5002C36.5666 23.1981 36.3396 23.7692 35.8879 24.2209C35.4361 24.6728 34.8643 24.8997 34.1663 24.8997C33.4683 24.8996 32.8973 24.6727 32.4456 24.2209C31.9938 23.7692 31.7669 23.1982 31.7668 22.5002C31.7668 21.8022 31.9937 21.2304 32.4456 20.7786C32.8973 20.3269 33.4684 20.0999 34.1663 20.0999Z" fill="#FF7052" stroke="white" stroke-width="0.2"/>
</svg>
