<svg width="60" height="60" viewBox="0 0 60 60" fill="none" xmlns="http://www.w3.org/2000/svg">
<rect width="60" height="60" rx="12" fill="white"/>
<path d="M30.3334 13.4329C32.5439 13.4329 34.6291 13.8137 36.5892 14.5735C38.5505 15.3337 40.2695 16.383 41.7465 17.7209C43.2231 19.0586 44.3961 20.6447 45.265 22.4807C46.1328 24.3144 46.5667 26.2927 46.5668 28.4163C46.5668 31.5892 45.6019 34.011 43.684 35.6965C41.7592 37.3881 39.4217 38.2347 36.6664 38.2336H33.5834C33.3172 38.2336 33.104 38.3077 32.9808 38.4846C32.873 38.6397 32.818 38.8122 32.8168 38.9993V39.0002C32.8168 39.1861 32.874 39.4039 32.9808 39.6497C33.0881 39.8965 33.2482 40.1778 33.4584 40.4934C33.8633 41.1014 34.0668 41.7971 34.0668 42.5833C34.0668 43.9545 33.6898 44.9497 32.9554 45.5911C32.2144 46.2382 31.2329 46.5666 30.0004 46.5667C27.7358 46.5667 25.5963 46.131 23.5814 45.261C21.5651 44.3903 19.8052 43.2034 18.3011 41.6995C16.797 40.1953 15.6094 38.4348 14.7386 36.4182C13.8688 34.4035 13.433 32.2646 13.433 30.0002C13.433 27.7082 13.8823 25.5548 14.7797 23.5403C15.678 21.5238 16.8935 19.7703 18.4252 18.2795C19.957 16.7887 21.745 15.6083 23.7894 14.7385C25.832 13.8696 28.013 13.434 30.3334 13.4329ZM30.3334 16.5667C26.5301 16.5667 23.2827 17.8682 20.597 20.47C17.911 23.0722 16.5668 26.2511 16.5668 30.0002C16.5668 33.7209 17.876 36.8925 20.4926 39.509C23.1092 42.1257 26.2807 43.434 30.0004 43.4329C30.2695 43.4328 30.4969 43.3582 30.6722 43.1995C30.8483 43.04 30.9342 42.8305 30.933 42.5823C30.9326 42.1599 30.7076 41.6801 30.2865 41.1467C29.8897 40.6442 29.683 39.8784 29.683 38.8333C29.683 37.6926 30.0757 36.7909 30.8568 36.1174C31.6424 35.4402 32.6052 35.0999 33.7504 35.0999H36.6664C38.5207 35.0999 40.1138 34.5587 41.4388 33.4739C42.7746 32.3801 43.433 30.6865 43.433 28.4163C43.4329 25.0259 42.1356 22.1999 39.5453 19.9446C37.1192 17.8323 34.2674 16.7103 30.9935 16.5793L30.3334 16.5667ZM20.8334 26.7668C21.5314 26.7668 22.1023 26.9938 22.5541 27.4456C23.0059 27.8973 23.2337 28.4683 23.2338 29.1663C23.2338 29.8643 23.0059 30.4361 22.5541 30.8879C22.1023 31.3396 21.5313 31.5667 20.8334 31.5667C20.1355 31.5667 19.5645 31.3396 19.1127 30.8879C18.6608 30.4361 18.433 29.8643 18.433 29.1663C18.4331 28.4683 18.6609 27.8973 19.1127 27.4456C19.5645 26.9938 20.1354 26.7668 20.8334 26.7668ZM39.1664 26.7668C39.8645 26.7668 40.4362 26.9937 40.8881 27.4456C41.3397 27.8973 41.5667 28.4684 41.5668 29.1663C41.5668 29.8643 41.3399 30.4361 40.8881 30.8879C40.4362 31.3398 39.8645 31.5667 39.1664 31.5667C38.4685 31.5666 37.8974 31.3396 37.4457 30.8879C36.9938 30.4361 36.767 29.8643 36.767 29.1663C36.767 28.4683 36.9939 27.8973 37.4457 27.4456C37.8975 26.9938 38.4684 26.7669 39.1664 26.7668ZM25.8334 20.0999C26.5313 20.0999 27.1023 20.3269 27.5541 20.7786C28.0059 21.2304 28.2338 21.8022 28.2338 22.5002C28.2337 23.1982 28.0059 23.7692 27.5541 24.2209C27.1023 24.6727 26.5314 24.8997 25.8334 24.8997C25.1354 24.8997 24.5645 24.6727 24.1127 24.2209C23.6609 23.7692 23.4331 23.1982 23.433 22.5002C23.433 21.8022 23.6608 21.2304 24.1127 20.7786C24.5645 20.3269 25.1355 20.0999 25.8334 20.0999ZM34.1664 20.0999C34.8645 20.0999 35.4362 20.3267 35.8881 20.7786C36.3399 21.2304 36.5668 21.8022 36.5668 22.5002C36.5667 23.1981 36.3397 23.7692 35.8881 24.2209C35.4362 24.6728 34.8645 24.8997 34.1664 24.8997C33.4684 24.8996 32.8975 24.6727 32.4457 24.2209C31.9939 23.7692 31.767 23.1982 31.767 22.5002C31.767 21.8022 31.9938 21.2304 32.4457 20.7786C32.8974 20.3269 33.4685 20.0999 34.1664 20.0999Z" fill="#FF7052" stroke="white" stroke-width="0.2"/>
</svg>
