<svg width="60" height="60" viewBox="0 0 60 60" fill="none" xmlns="http://www.w3.org/2000/svg">
<rect width="60" height="60" rx="12" fill="white"/>
<path d="M11.6666 13.3333H48.3333V27.0833H45V16.6666H15V36.6666H29.1666V39.9999H11.6666V13.3333ZM15 43.3333H29.1666V46.6666H15V43.3333Z" fill="#FF7052"/>
<path d="M42.5 30V32.2933C43.6916 32.6 44.7533 33.2267 45.59 34.08L47.5783 32.9317L49.245 35.8183L47.2583 36.965C47.5828 38.1329 47.5828 39.3671 47.2583 40.535L49.245 41.6817L47.5783 44.5683L45.59 43.42C44.7415 44.2853 43.6732 44.903 42.5 45.2067V47.5H39.1666V45.2067C37.9934 44.903 36.9251 44.2853 36.0766 43.42L34.0883 44.5683L32.4216 41.6817L34.4083 40.535C34.0838 39.3671 34.0838 38.1329 34.4083 36.965L32.4216 35.8183L34.0883 32.9317L36.0766 34.0783C36.9253 33.2136 37.9936 32.5965 39.1666 32.2933V30H42.5ZM37.915 37.1383C37.642 37.6317 37.4986 38.1862 37.4983 38.75C37.4983 39.3333 37.65 39.8833 37.915 40.3617L37.975 40.4667C38.2711 40.9603 38.69 41.3688 39.1909 41.6524C39.6919 41.936 40.2577 42.0851 40.8333 42.0851C41.4089 42.0851 41.9747 41.936 42.4756 41.6524C42.9766 41.3688 43.3955 40.9603 43.6916 40.4667L43.7516 40.3617C44.0166 39.8833 44.1666 39.335 44.1666 38.75C44.1666 38.1667 44.0166 37.6167 43.7516 37.1383L43.6916 37.0333C43.3955 36.5397 42.9766 36.1312 42.4756 35.8476C41.9747 35.564 41.4089 35.4149 40.8333 35.4149C40.2577 35.4149 39.6919 35.564 39.1909 35.8476C38.69 36.1312 38.2711 36.5397 37.975 37.0333L37.915 37.1383Z" fill="#FF7052"/>
</svg>
