<svg width="60" height="60" viewBox="0 0 60 60" fill="none" xmlns="http://www.w3.org/2000/svg">
<rect width="60" height="60" rx="12" fill="white"/>
<g clip-path="url(#clip0_17_353)">
<path d="M43.3333 13.3333H25.5555V18.8888H27.7777V15.5555H43.3333C43.9999 15.5555 44.4444 15.9999 44.4444 16.6666V28.8888C44.4444 29.5555 43.9999 29.9999 43.3333 29.9999H28.8888V37.7777H22.9999L18.8888 40.9999V37.7777H15.5555C14.8888 37.7777 14.4444 37.3333 14.4444 36.6666V24.4444C14.4444 23.7777 14.8888 23.3333 15.5555 23.3333H29.9999V21.111H15.5555C13.6666 21.111 12.2222 22.5555 12.2222 24.4444V36.6666C12.2222 38.5555 13.6666 39.9999 15.5555 39.9999H16.6666V45.6666L23.6666 39.9999H31.1111V32.2221H43.3333C45.2222 32.2221 46.6666 30.7777 46.6666 28.8888V16.6666C46.6666 14.7777 45.2222 13.3333 43.3333 13.3333Z" fill="#FF7052"/>
<path d="M16.8889 35.4446H19.5556L20.2222 33.6668H23.6667L24.3334 35.4446H27L23.2222 25.5557H20.5556L16.8889 35.4446ZM21.8889 28.3334L23 31.7779H20.7778L21.8889 28.3334Z" fill="#FF7052"/>
<path d="M32.2222 28.889C33.4444 28.889 35.1111 28.5556 36.6666 27.7779C38.2222 28.5556 39.9999 28.889 41.1111 28.889V26.6667C41.1111 26.6667 39.9999 26.6667 38.7777 26.2223C40.1111 24.889 41.1111 22.889 41.1111 20.0001V18.889H37.7777V16.6667H35.5555V18.889H32.2222V21.1112H38.7777C38.5555 23.1112 37.6666 24.3334 36.6666 25.1112C35.9999 24.5556 35.3333 23.7779 34.8888 22.7779H32.5555C32.9999 24.2223 33.6666 25.3334 34.5555 26.2223C33.4444 26.6667 32.4444 26.6667 32.2222 26.6667V28.889Z" fill="#FF7052"/>
</g>
<defs>
<clipPath id="clip0_17_353">
<rect width="40" height="40" fill="white" transform="translate(10 10)"/>
</clipPath>
</defs>
</svg>
