<svg width="60" height="60" viewBox="0 0 60 60" fill="none" xmlns="http://www.w3.org/2000/svg">
<rect width="60" height="60" rx="12" fill="white"/>
<path d="M36.5659 40.8333C34.2109 42.5616 31.8534 43.8224 30 44.4383C24.1667 42.4999 13.3334 34.1666 13.3334 24.9999C13.3334 19.9374 17.4375 15.8333 22.5 15.8333C25.6 15.8333 28.3417 17.3724 30 19.7283C30.8455 18.5244 31.9684 17.5419 33.2739 16.8639C34.5794 16.186 36.029 15.8324 37.5 15.8333C42.5625 15.8333 46.6667 19.9374 46.6667 24.9999C46.6667 26.4558 46.3934 27.8899 45.9109 29.2808" stroke="#FF7052" stroke-width="3" stroke-linecap="round" stroke-linejoin="round"/>
<path d="M32.5 34.1666H35.8333L38.3333 30.8333L40.8333 37.4999L43.3017 34.1666H46.6667" stroke="#FF7052" stroke-width="3" stroke-linecap="round" stroke-linejoin="round"/>
</svg>
