<svg width="60" height="60" viewBox="0 0 60 60" fill="none" xmlns="http://www.w3.org/2000/svg">
<rect width="60" height="60" rx="12" fill="white"/>
<path d="M19.2229 13.7145C18.8326 13.324 18.1996 13.3237 17.809 13.7138L17.4645 14.0578C17.0735 14.4483 17.0733 15.082 17.4642 15.4727L18.6679 16.6758C19.0584 17.0662 19.6915 17.0661 20.0819 16.6756L20.4256 16.332C20.816 15.9415 20.8161 15.3085 20.4257 14.918L19.2229 13.7145ZM42.1919 13.715C41.8015 13.3243 41.1683 13.3241 40.7776 13.7146L39.5739 14.9177C39.1832 15.3083 39.1832 15.9418 39.574 16.3323L39.9181 16.6761C40.3086 17.0664 40.9414 17.0663 41.3319 16.6761L42.5353 15.4732C42.9259 15.0828 42.9261 14.4497 42.5357 14.059L42.1919 13.715ZM30 13.7876C29.5875 13.7909 29.1708 13.8176 28.75 13.8676H28.7125C23.6425 14.4488 19.6075 18.5451 18.9062 23.5926C18.3463 27.6551 20.0212 31.3388 22.8125 33.7113C23.9308 34.666 24.6946 35.9685 24.9826 37.4085C24.9946 37.4685 25 37.5296 25 37.5907V43.9988C25 44.5511 25.4477 44.9988 26 44.9988H27.2754C27.6312 44.9988 27.9493 45.199 28.192 45.4591C28.6454 45.9447 29.2842 46.2488 30 46.2488C30.7158 46.2488 31.3546 45.9447 31.808 45.4591C32.0507 45.199 32.3688 44.9988 32.7246 44.9988H34C34.5523 44.9988 35 44.5511 35 43.9988V40.0576C35 40.0251 35.0263 39.9988 35.0588 39.9988C35.0912 39.9988 35.1175 39.9725 35.1175 39.9401V38.5138C35.1175 36.6813 36.07 34.8338 37.6175 33.3976C39.6875 31.3251 41.25 28.3813 41.25 25.0001C41.25 18.8251 36.1675 13.7301 30 13.7876ZM29.9987 16.2882C29.9996 16.2878 30.0005 16.2876 30.0014 16.2875C34.832 16.2208 38.75 20.1755 38.75 25.0001C38.75 27.6074 37.5469 29.9046 35.8783 31.5805C35.8675 31.5913 35.8675 31.6088 35.8784 31.6197C35.8895 31.6308 35.8891 31.649 35.8776 31.6597C34.4363 32.9977 33.4382 34.7354 33.0044 36.6403C32.8932 37.1284 32.4753 37.5001 31.9748 37.5001H28.2611C27.758 37.5001 27.3387 37.1249 27.2333 36.633C26.8419 34.8056 25.9519 33.082 24.4513 31.7963C22.2425 29.9213 20.9263 27.0963 21.3663 23.9063C21.9125 19.9688 25.1075 16.8026 29.0225 16.3688C29.3453 16.3241 29.6703 16.2974 29.9961 16.2889C29.997 16.2888 29.9979 16.2886 29.9987 16.2882ZM13.5 25.0001C12.9477 25.0001 12.5 25.4478 12.5 26.0001V26.5001C12.5 27.0524 12.9477 27.5001 13.5 27.5001H15.25C15.8023 27.5001 16.25 27.0524 16.25 26.5001V26.0001C16.25 25.4478 15.8023 25.0001 15.25 25.0001H13.5ZM44.75 25.0001C44.1977 25.0001 43.75 25.4478 43.75 26.0001V26.5001C43.75 27.0524 44.1977 27.5001 44.75 27.5001H46.5C47.0523 27.5001 47.5 27.0524 47.5 26.5001V26.0001C47.5 25.4478 47.0523 25.0001 46.5 25.0001H44.75ZM20.0819 35.825C19.6915 35.4343 19.0583 35.4341 18.6676 35.8246L17.4649 37.0267C17.0743 37.4172 17.0742 38.0505 17.4648 38.4411L17.8088 38.7851C18.1995 39.1758 18.8329 39.1756 19.2234 38.7848L20.4251 37.5819C20.8152 37.1914 20.8151 36.5587 20.425 36.1683L20.0819 35.825ZM41.3321 35.8243C40.9416 35.434 40.3085 35.434 39.9181 35.8245L39.5744 36.1681C39.184 36.5586 39.1839 37.1916 39.5743 37.5822L40.7766 38.7851C41.1671 39.1758 41.8004 39.1759 42.191 38.7853L42.5352 38.4411C42.9258 38.0505 42.9257 37.4172 42.5351 37.0267L41.3321 35.8243ZM27.5 41.0001C27.5 40.4478 27.9477 40.0001 28.5 40.0001H31.5C32.0523 40.0001 32.5 40.4478 32.5 41.0001V41.5001C32.5 42.0524 32.0523 42.5001 31.5 42.5001H28.5C27.9477 42.5001 27.5 42.0524 27.5 41.5001V41.0001Z" fill="#FF7052"/>
</svg>
