<svg width="60" height="60" viewBox="0 0 60 60" fill="none" xmlns="http://www.w3.org/2000/svg">
<rect width="60" height="60" rx="12" fill="white"/>
<path fill-rule="evenodd" clip-rule="evenodd" d="M23.945 15.8201C24.7767 16.4801 25.8983 17.4034 27.12 18.4984C28.29 19.5484 29.575 20.7751 30.7917 22.1001C33.13 20.1151 34.935 17.8751 35.865 15.7418C34.5771 15.2126 33.2239 14.8595 31.8417 14.6918C29.156 14.3646 26.4316 14.7539 23.945 15.8201ZM38.0967 16.8768C36.9667 19.3918 34.9283 21.8651 32.4217 23.9951C33.1579 24.9037 33.8248 25.8664 34.4167 26.8751C35.1 28.0584 35.7067 29.4301 36.2417 30.8684C39.2617 29.7301 42.4367 29.1667 45.4117 29.5268C45.3364 26.9814 44.6284 24.495 43.3517 22.2918C42.0784 20.0772 40.272 18.2158 38.0967 16.8768ZM45.2833 32.0318C42.7233 31.6834 39.8583 32.1651 37.0433 33.2384C37.5267 34.8001 37.935 36.3651 38.265 37.7868C38.619 39.3058 38.9319 40.8341 39.2033 42.3701C41.393 40.7453 43.1097 38.566 44.1767 36.0568C44.7267 34.7718 45.0983 33.4151 45.2833 32.0318ZM36.9067 43.7817C36.6073 41.9611 36.2488 40.1507 35.8317 38.3534C35.5125 36.9747 35.1484 35.6067 34.74 34.2518C34.0578 34.5929 33.3872 34.9634 32.7283 35.3634C28.7083 37.8101 25.4917 41.1468 24.135 44.2584C26.1737 45.0982 28.369 45.4903 30.5724 45.4084C32.7758 45.3264 34.9359 44.7723 36.9067 43.7834M21.9033 43.1251C23.5717 39.4134 27.22 35.7901 31.4283 33.2301C32.2394 32.7356 33.0772 32.279 33.9417 31.8601C33.4383 30.4884 32.875 29.2051 32.2517 28.1268C31.715 27.2196 31.1128 26.3529 30.45 25.5334C29.873 25.9465 29.2815 26.339 28.6767 26.7101C24.3933 29.3401 19.2467 31.0384 14.5867 30.4751C14.6627 33.02 15.3712 35.5059 16.6483 37.7084C17.9214 39.9236 19.7277 41.7855 21.9033 43.1251ZM14.7167 27.9668C15.0071 25.7737 15.7666 23.669 16.9435 21.7959C18.1203 19.9227 19.6869 18.3251 21.5367 17.1118C21.7456 17.2706 22.0044 17.4723 22.3133 17.7168C23.1233 18.3551 24.2367 19.2684 25.4517 20.3584C26.5517 21.3451 27.715 22.4584 28.805 23.6334C28.3383 23.959 27.8594 24.2734 27.3683 24.5768C23.2883 27.0834 18.645 28.5001 14.7167 27.9668ZM21.0417 14.4834C24.3962 12.5391 28.2929 11.7411 32.1417 12.2101C34.9041 12.5415 37.5512 13.5122 39.8729 15.0453C42.1946 16.5783 44.127 18.6315 45.5167 21.0418C46.9087 23.4502 47.7202 26.1499 47.8868 28.9267C48.0535 31.7034 47.5706 34.4808 46.4767 37.0384C44.959 40.6068 42.3196 43.5832 38.9583 45.5168C30.3883 50.4634 19.4317 47.5268 14.4833 38.9584C9.53667 30.3884 12.4717 19.4301 21.0417 14.4834Z" fill="#FF7052"/>
</svg>
