<svg width="45" height="16" viewBox="0 0 45 16" fill="none" xmlns="http://www.w3.org/2000/svg">
<path d="M5.73047 3.52734V4.30078H1.875V9.60938C3.75 9.60938 4.99219 9.54492 6.43359 9.26953L6.55078 10.0312C5.01562 10.3242 3.75 10.3945 1.74609 10.3945H0.949219V3.52734H5.73047ZM9.07031 2.53125V12.9727H8.14453V7.08984H5.10938V6.32812H8.14453V2.53125H9.07031ZM20.032 10.8516V11.6133H10.493V10.8516H14.782V8.60156H11.618V3.26953H12.5437V5.15625H17.9578V3.26953H18.8602V8.60156H15.6844V10.8516H20.032ZM12.5437 7.85156H17.9578V5.90625H12.5437V7.85156ZM29.1773 2.53125V12.9492H28.2516V2.53125H29.1773ZM26.0953 3.66797C26.0836 6.66797 24.6891 9.31641 21.1969 10.9922L20.693 10.2422C23.5113 8.90625 24.9469 6.9082 25.1578 4.41797H21.1734V3.66797H26.0953Z" fill="#8C8F9F"/>
<path d="M37.5 11L40.5 8L37.5 5" stroke="#8C8F9F" stroke-linecap="round" stroke-linejoin="round"/>
</svg>
