<svg width="61" height="22" viewBox="0 0 61 22" fill="none" xmlns="http://www.w3.org/2000/svg">
<rect width="61" height="22" rx="4" fill="#4E4E4E"/>
<path d="M19.9609 13.8398V14.6133H10.4219V13.8398H14.7109V11.2969H11.5469V6.41016H18.7773V11.2969H15.6133V13.8398H19.9609ZM12.4492 7.14844V10.5586H17.8867V7.14844H12.4492ZM24.243 7.25391C24.243 8.61328 25.3797 9.82031 26.9266 10.2891L26.4578 11.0156C25.2391 10.6289 24.2605 9.79102 23.7859 8.71875C23.3289 9.86719 22.3445 10.7637 21.1023 11.1914L20.6219 10.4648C22.1922 9.97266 23.3172 8.68359 23.3172 7.25391V6.98438H20.8797V6.23438H26.6453V6.98438H24.243V7.25391ZM29.0945 5.53125V11.168H28.1805V5.53125H29.0945ZM23.2586 11.6836V12.9492H28.1805V11.6836H29.0945V15.8086H22.3445V11.6836H23.2586ZM23.2586 15.0586H28.1805V13.6875H23.2586V15.0586ZM33.7398 6.02344C35.2633 6.02344 36.3297 6.84375 36.3297 8.08594C36.3297 9.1582 35.4859 9.9375 34.232 10.0898V11.1094C35.2047 11.0684 36.1949 10.9805 37.1031 10.8398L37.1734 11.5312C34.9703 11.9297 32.4742 11.9531 30.6695 11.9531L30.5523 11.1914C31.3609 11.1973 32.3102 11.1914 33.3062 11.1562V10.1016C32.0172 9.96094 31.15 9.17578 31.1617 8.08594C31.15 6.84375 32.2164 6.02344 33.7398 6.02344ZM33.7398 6.73828C32.732 6.73828 32.0172 7.27734 32.0289 8.08594C32.0172 8.87109 32.732 9.41016 33.7398 9.42188C34.7594 9.41016 35.4508 8.87109 35.4625 8.08594C35.4508 7.27734 34.7594 6.73828 33.7398 6.73828ZM38.6969 5.54297V9.07031H40.2555V9.85547H38.6969V13.5117H37.7711V5.54297H38.6969ZM39.0719 14.9414V15.7148H32.0758V12.8203H33.0016V14.9414H39.0719ZM50.1742 13.8867V14.6602H40.6352V13.8867H43.3188V11.9062H41.8305V8.69531H48.0648V7.06641H41.807V6.30469H48.9672V9.45703H42.7445V11.1445H49.2133V11.9062H47.5844V13.8867H50.1742ZM44.2211 13.8867H46.682V11.9062H44.2211V13.8867Z" fill="white"/>
</svg>
