<svg width="51" height="22" viewBox="0 0 51 22" fill="none" xmlns="http://www.w3.org/2000/svg">
<rect width="51" height="22" rx="4" fill="#4E4E4E"/>
<path d="M19.9609 13.8398V14.6133H10.4219V13.8398H14.7109V11.2969H11.5469V6.41016H18.7773V11.2969H15.6133V13.8398H19.9609ZM12.4492 7.14844V10.5586H17.8867V7.14844H12.4492ZM24.243 7.25391C24.243 8.61328 25.3797 9.82031 26.9266 10.2891L26.4578 11.0156C25.2391 10.6289 24.2605 9.79102 23.7859 8.71875C23.3289 9.86719 22.3445 10.7637 21.1023 11.1914L20.6219 10.4648C22.1922 9.97266 23.3172 8.68359 23.3172 7.25391V6.98438H20.8797V6.23438H26.6453V6.98438H24.243V7.25391ZM29.0945 5.53125V11.168H28.1805V5.53125H29.0945ZM23.2586 11.6836V12.9492H28.1805V11.6836H29.0945V15.8086H22.3445V11.6836H23.2586ZM23.2586 15.0586H28.1805V13.6875H23.2586V15.0586ZM40.0562 10.4062V11.168H35.7555V12.2812C37.7242 12.3633 38.8844 13.0078 38.8961 14.1094C38.8844 15.2695 37.5484 15.9258 35.3102 15.9258C33.0484 15.9258 31.7125 15.2695 31.7125 14.1094C31.7125 13.0078 32.8668 12.3633 34.8531 12.2812V11.168H30.5641V10.4062H40.0562ZM35.3102 12.9844C33.6344 12.9961 32.6383 13.4062 32.65 14.1094C32.6383 14.8008 33.6344 15.2109 35.3102 15.2109C36.9625 15.2109 37.9703 14.8008 37.9703 14.1094C37.9703 13.4062 36.9625 12.9961 35.3102 12.9844ZM39.2125 6.02344V6.77344H35.9078C35.9664 7.94531 37.6891 8.85352 39.5289 9.04688L39.1891 9.77344C37.484 9.56836 35.8844 8.80664 35.3102 7.64062C34.7418 8.80664 33.148 9.56836 31.4312 9.77344L31.1031 9.04688C32.9078 8.85352 34.6422 7.94531 34.7125 6.77344H31.4312V6.02344H39.2125Z" fill="white"/>
</svg>
