<svg width="84" height="84" viewBox="0 0 84 84" fill="none" xmlns="http://www.w3.org/2000/svg">
<path fill-rule="evenodd" clip-rule="evenodd" d="M42 0.333374C47.4718 0.333348 52.8899 1.41107 57.9452 3.505C63.0004 5.59893 67.5937 8.66807 71.4629 12.5372C75.332 16.4063 78.4011 20.9996 80.4951 26.0548C82.5891 31.11 83.6668 36.5282 83.6668 42C83.6668 65.0119 65.0119 83.6668 42 83.6668C18.9883 83.6668 0.333405 65.0119 0.333405 42C0.333405 18.9883 18.9883 0.333374 42 0.333374ZM46.1668 46.1668H37.8334C27.518 46.1668 18.6619 52.4142 14.8422 61.3324C20.8859 69.8072 30.7977 75.3334 42 75.3334C53.2023 75.3334 63.1141 69.8072 69.158 61.3318C65.3383 52.4142 56.4822 46.1668 46.1668 46.1668ZM42 12.8334C35.0965 12.8334 29.5 18.4299 29.5 25.3334C29.5 32.2369 35.0965 37.8334 42 37.8334C48.9035 37.8334 54.5 32.2369 54.5 25.3334C54.5 18.4299 48.9037 12.8334 42 12.8334Z" fill="#8C8F9F"/>
</svg>
