<svg width="40" height="40" viewBox="0 0 40 40" fill="none" xmlns="http://www.w3.org/2000/svg">
<path d="M33.275 14.2016C33.3139 13.9116 33.3333 13.6221 33.3333 13.3333C33.3333 9.36825 29.7616 6.18658 25.7983 6.72492C24.6433 4.66992 22.4433 3.33325 20 3.33325C17.5566 3.33325 15.3566 4.66992 14.2016 6.72492C10.23 6.18658 6.66663 9.36825 6.66663 13.3333C6.66663 13.6221 6.68608 13.9116 6.72496 14.2016C4.66996 15.3583 3.3333 17.5583 3.3333 19.9999C3.3333 22.4416 4.66996 24.6416 6.72496 25.7983C6.68663 26.0861 6.66714 26.3762 6.66663 26.6666C6.66663 30.6316 10.23 33.8049 14.2016 33.2749C15.3566 35.3299 17.5566 36.6666 20 36.6666C22.4433 36.6666 24.6433 35.3299 25.7983 33.2749C29.7616 33.8049 33.3333 30.6316 33.3333 26.6666C33.3333 26.3777 33.3139 26.0883 33.275 25.7983C35.33 24.6416 36.6666 22.4416 36.6666 19.9999C36.6666 17.5583 35.33 15.3583 33.275 14.2016Z" fill="#FF7052"/>
<path d="M25.8889 16.1666L18.25 23.8055L14.7778 20.3333" stroke="white" stroke-width="2" stroke-linecap="round" stroke-linejoin="round"/>
</svg>
