<svg width="24" height="24" viewBox="0 0 24 24" fill="none" xmlns="http://www.w3.org/2000/svg">
<g clip-path="url(#clip0_210_152)">
<circle cx="12" cy="12" r="11.5" fill="#8C8F9F" stroke="#F6F6F6"/>
<path d="M16.7528 10.5839L17.309 10.0277C17.7514 9.58522 18 8.98511 18 8.35937C18 7.73362 17.7514 7.13351 17.309 6.69104C16.8665 6.24858 16.2665 6 15.6408 6C15.015 6 14.415 6.24858 13.9725 6.69104L13.4163 7.24725L8.30331 12.3593C7.95713 12.7061 7.78373 12.8795 7.63494 13.0703C7.45938 13.2956 7.30871 13.5392 7.18555 13.7969C7.08176 14.0153 7.00436 14.2481 6.84957 14.7126L6.19319 16.6812M16.7528 10.5839C16.7528 10.5839 15.5715 10.5143 14.5287 9.47148C13.4859 8.42927 13.4169 7.24725 13.4169 7.24725M16.7528 10.5839L11.6404 15.696C11.2942 16.0422 11.1208 16.2156 10.93 16.3644C10.7047 16.5399 10.4611 16.6906 10.2034 16.8138C9.98505 16.9176 9.75286 16.995 9.28788 17.1498L7.31935 17.8062M7.31935 17.8062L6.83817 17.967C6.726 18.0046 6.60557 18.0102 6.49041 17.9831C6.37525 17.956 6.26993 17.8974 6.18627 17.8137C6.10262 17.7301 6.04396 17.6247 6.01688 17.5096C5.98981 17.3944 5.99539 17.274 6.033 17.1618L6.19379 16.6806L7.31935 17.8062Z" stroke="#F6F6F6" stroke-width="1.2"/>
</g>
<defs>
<clipPath id="clip0_210_152">
<rect width="24" height="24" fill="white"/>
</clipPath>
</defs>
</svg>
